<?xml version="1.0" standalone="no"?>
<!DOCTYPE svg PUBLIC "-//W3C//DTD SVG 20010904//EN"
 "http://www.w3.org/TR/2001/REC-SVG-20010904/DTD/svg10.dtd">
<svg version="1.0" xmlns="http://www.w3.org/2000/svg"
 width="700.000000pt" height="700.000000pt" viewBox="0 0 700.000000 700.000000"
 preserveAspectRatio="xMidYMid meet">
<metadata>
Created by potrace 1.14, written by Peter Selinger 2001-2017
</metadata>
<g transform="translate(0.000000,700.000000) scale(0.100000,-0.100000)"
fill="#000000" stroke="none">
<path d="M28 4855 c-6 0 -3 -3261 3 -3265 11 -7 2778 -5 2785 3 4 3 7 107 7
232 l0 225 26 1 c14 0 119 1 234 1 l207 1 0 467 0 467 -222 1 c-123 0 -228 1
-234 1 -9 1 -12 65 -11 226 0 124 -3 228 -6 232 -4 4 -425 7 -935 7 l-927 1 0
466 0 466 928 -1 c532 -1 931 3 934 8 5 7 7 333 4 436 l-1 25 -1395 0 c-767 0
-1396 0 -1397 0z m2328 -2325 c0 -250 -1 -460 -3 -466 -3 -7 -217 -10 -701
-10 l-697 1 0 460 c-1 253 0 463 1 466 2 3 317 5 701 5 l698 -1 1 -455z"/>
<path d="M3682 4853 c-8 -3 -8 -3233 0 -3254 5 -12 85 -14 454 -12 247 1 455
2 462 2 9 1 12 148 12 699 l0 698 465 0 c320 0 465 -3 466 -10 1 -6 3 -211 4
-456 1 -245 3 -450 4 -456 1 -8 66 -11 219 -12 119 0 223 -1 230 -1 9 -1 12
-54 12 -230 0 -174 3 -230 13 -233 9 -3 817 -2 902 1 20 1 20 7 20 231 0 147
-4 230 -10 231 -5 0 -111 1 -234 2 l-224 2 -1 465 -1 465 -230 1 -230 1 -3
228 c-1 126 -6 232 -11 235 -5 3 -110 5 -233 4 l-223 0 0 230 0 231 -235 3
-235 2 1 -233 2 -234 -234 1 -234 0 0 698 c0 384 -3 698 -7 699 -18 2 -914 4
-921 2z"/>
<path d="M6027 4852 c-15 -3 -17 -26 -17 -233 0 -222 -1 -229 -20 -230 -11 0
-116 -1 -232 -2 l-213 -2 0 -230 0 -230 466 -3 466 -2 1 197 c0 109 1 214 1
234 l1 36 213 0 c116 1 221 1 232 2 20 1 20 7 20 231 0 223 -1 230 -20 231
-56 3 -884 4 -898 1z"/>
</g>
</svg>
